<svg width="512" height="512" viewBox="0 0 512 512" fill="none" xmlns="http://www.w3.org/2000/svg">
<path d="M154 377.5C154 395.196 148.685 410.622 140.823 421.27C132.958 431.924 123.305 437 114 437C104.695 437 95.0416 431.924 87.1768 421.27C79.3154 410.622 74 395.196 74 377.5C74 359.804 79.3154 344.378 87.1768 333.73C95.0416 323.076 104.695 318 114 318C123.305 318 132.958 323.076 140.823 333.73C148.685 344.378 154 359.804 154 377.5Z" stroke="black" stroke-width="30"/>
<path d="M59 60C59 90.2835 69.2273 367.298 74 373" stroke="black" stroke-width="30"/>
<path d="M110 318.222L262.035 318.785C262.035 318.785 393 318.785 398 318.785C403 318.785 433.53 358.428 428 387C421.919 418.419 383 438.5 365.5 440C348 441.5 110 437 110 437" stroke="black" stroke-width="30"/>
<path d="M366 308.052L355.5 63" stroke="black" stroke-width="30"/>
<path d="M108.855 212L218 212M108.855 134.001L315.855 132.001" stroke="black" stroke-width="30"/>
<path d="M44.5 74L370.77 70.0019" stroke="black" stroke-width="30"/>
</svg>
