<svg width="512" height="512" viewBox="0 0 512 512" fill="none" xmlns="http://www.w3.org/2000/svg">
<rect x="189.076" y="32" width="134.717" height="25.2511" fill="black"/>
<circle cx="256.5" cy="284.5" r="212.5" stroke="black" stroke-width="30"/>
<circle cx="256.5" cy="284.5" r="25.5" fill="black"/>
<path d="M356.387 183.384C361.57 176.921 360.532 167.48 354.069 162.298C347.606 157.115 338.165 158.153 332.983 164.616L356.387 183.384ZM267.702 293.979L356.387 183.384L332.983 164.616L244.298 275.211L267.702 293.979Z" fill="black"/>
<path d="M356.387 183.384C361.57 176.921 360.532 167.48 354.069 162.298C347.606 157.115 338.165 158.153 332.983 164.616L356.387 183.384ZM267.702 293.979L356.387 183.384L332.983 164.616L244.298 275.211L267.702 293.979Z" fill="black"/>
<path d="M356.387 183.384C361.57 176.921 360.532 167.48 354.069 162.298C347.606 157.115 338.165 158.153 332.983 164.616L356.387 183.384ZM267.702 293.979L356.387 183.384L332.983 164.616L244.298 275.211L267.702 293.979Z" fill="black"/>
<path d="M185.939 339.273C180.344 345.381 180.759 354.87 186.868 360.466C192.976 366.062 202.465 365.646 208.061 359.537L185.939 339.273ZM244.939 274.868L185.939 339.273L208.061 359.537L267.061 295.132L244.939 274.868Z" fill="black"/>
<path d="M185.939 339.273C180.344 345.381 180.759 354.87 186.868 360.466C192.976 366.062 202.465 365.646 208.061 359.537L185.939 339.273ZM244.939 274.868L185.939 339.273L208.061 359.537L267.061 295.132L244.939 274.868Z" fill="black"/>
<path d="M185.939 339.273C180.344 345.381 180.759 354.87 186.868 360.466C192.976 366.062 202.465 365.646 208.061 359.537L185.939 339.273ZM244.939 274.868L185.939 339.273L208.061 359.537L267.061 295.132L244.939 274.868Z" fill="black"/>
</svg>
